# xmcd CD database file
#
# Track frame offsets:
#	150
#	16185
#	34562
#	49135
#	63355
#	76230
#	89305
#	103714
#	114391
#	129379
#
# Disc length: 1992 seconds
#
# Revision: 0
# Processed by: cddbd v1.5.2PL0 Copyright (c) Steve Scherf et al.
# Submitted via: CDex 1.70beta2
#
DISCID=7107c60a
DTITLE=Eli Barsi - Unmarked Trail
DYEAR=1995
DGENRE=Country
TTITLE0=Old Timer
TTITLE1=Blue Heart At Midnight
TTITLE2=Honky Tonk Lights
TTITLE3=Can't Stop Living This Way
TTITLE4=I Want To Be A Cowboy's Sweetheart
TTITLE5=Flat Land Country Ball
TTITLE6=Dream A Little Dream Of Me
TTITLE7=You're Back
TTITLE8=When The Coyote Howls
TTITLE9=The Reason
EXTD=YEAR: 1995
EXTT0=
EXTT1=
EXTT2=
EXTT3=
EXTT4=
EXTT5=
EXTT6=
EXTT7=
EXTT8=
EXTT9=
PLAYORDER=
